Coordinates
version=1
nRows=12
nColumns=23
inDegrees=yes

Units are S.I. units (second, meters, Newtons, ...)
If the header above contains a line with 'inDegrees', this indicates whether rotational values are in degrees (yes) or radians (no).

endheader
time	sacrum_pitch	sacrum_roll	sacrum_yaw	sacrum_x	sacrum_y	sacrum_z	sacroiliac_r_flx	hip_r_flx	hip_r_add	hip_r_int	knee_r_flx	ankle_r_flx	ankle_r_add	ankle_r_int	sacroiliac_l_flx	hip_l_flx	hip_l_add	hip_l_int	knee_l_flx	ankle_l_flx	ankle_l_add	ankle_l_int
      2.87000000	     18.73257241	     -3.26870032	     13.33342313	     -0.02572945	      0.06013709	     -0.00107790	      3.69999987	     50.58052037	    -21.99243877	     -9.67745117	    -97.69196281	     15.56260350	     -4.99999985	      0.00000000	      3.70000000	     21.97131247	    -18.74658034	     15.87651807	   -120.47148826	     11.38854772	     -4.99999985	      0.00000000
      2.87500000	     17.38979861	     -1.88815288	     12.72359228	     -0.02396509	      0.06003899	     -0.00021864	      3.69999987	     49.04470599	    -26.56453263	    -15.61507309	    -97.57598422	     21.69304139	     -4.99999985	      0.00000000	      3.70000000	     21.13113461	    -18.19198796	     15.94821369	   -119.09631869	      9.77596985	     -4.99999985	      0.00000000
      2.88000000	     18.03181420	     -1.06860199	     12.62321792	     -0.02193914	      0.05946208	      0.00073166	      3.69999987	     48.83466814	    -27.24071301	    -15.95050671	   -100.86162308	     23.25200568	     -4.99999985	      0.00000000	      3.70000000	     19.52109684	    -18.60271692	     16.29512312	   -118.49220497	      8.13753609	     -4.99999985	      0.00000000
      2.88500000	     17.82169015	      0.62455975	     12.56865363	     -0.02021242	      0.05925267	      0.00158387	      3.69999987	     52.17299714	    -25.94048431	    -10.77586906	   -105.63304367	     21.64894526	     -4.99999985	      0.00000000	      3.70000000	     18.98940370	    -16.97657253	     16.73532058	   -117.79576794	      4.17437666	     -4.99999985	      0.00000000
      2.89000000	     18.32446521	      1.94436789	     11.45535578	     -0.01854551	      0.05872929	      0.00196526	      3.69999987	     51.56327269	    -27.55038415	    -11.72268947	   -108.58870854	     24.47106426	     -4.99999985	      0.00000000	      3.70000000	     17.53596769	    -17.11090426	     15.47379215	   -117.73032547	      2.34724733	     -4.99999985	      0.00000000
      2.89500000	     18.53263406	      1.98500831	     10.85066723	     -0.01682285	      0.05857762	      0.00289028	      3.69999987	     51.00073336	    -27.05546443	    -12.48467117	   -109.69268310	     24.98207814	     -4.99999985	      0.00000000	      3.70000000	     16.63996437	    -17.26976690	     16.67083378	   -117.15685861	      0.91194524	     -4.99999985	      0.00000000
      2.90000000	     18.14241647	      3.25620699	     10.41637964	     -0.01526549	      0.05853017	      0.00334291	      3.69999987	     51.41662892	    -27.16374993	    -11.00363648	   -112.16932756	     26.67542581	     -4.99999985	      0.00000000	      3.70000000	     16.82821576	    -15.14554016	     16.80435611	   -116.91795727	     -6.25710339	     -4.99999985	      0.00000000
      2.90500000	     17.79526329	      3.43665549	      9.75062084	     -0.01366071	      0.05843726	      0.00367361	      3.69999987	     50.88726725	    -26.96731999	    -10.95597264	   -112.66396737	     26.64671398	     -4.99999985	      0.00000000	      3.70000000	     16.69993738	    -15.24001184	     16.94857847	   -116.83433361	     -6.21898687	     -4.99999985	      0.00000000
      2.91000000	     19.08881708	      3.81028970	      8.74563615	     -0.01173174	      0.05801835	      0.00399928	      3.69999987	     50.51531273	    -25.64530558	     -9.30897838	   -116.02727472	     27.14741118	     -4.99999985	      0.00000000	      3.70000000	     15.59989952	    -14.29657576	     17.52838673	   -117.91510913	    -10.82802995	     -4.99999985	      0.00000000
      2.91500000	     19.22605612	      4.35111727	      8.29445231	     -0.00999822	      0.05758265	      0.00396290	      3.69999987	     50.06809939	    -25.97485282	     -8.68620785	   -118.25203620	     27.93094072	     -4.99999985	      0.00000000	      3.70000000	     16.45518040	    -13.70450408	     17.59825413	   -120.19370313	    -11.17334461	     -4.99999985	      0.00000000
      2.92000000	     19.47372121	      5.11953395	      7.75935174	     -0.00814763	      0.05740136	      0.00403398	      3.69999987	     49.47049902	    -26.27393843	     -7.66227102	   -119.94275153	     28.54376210	     -4.99999985	      0.00000000	      3.70000000	     17.85251766	    -12.78864298	     18.23946143	   -123.72702229	    -11.03485654	     -4.99999985	      0.00000000
      2.92500000	     18.62813557	      5.39587860	      7.39798282	     -0.00652544	      0.05754637	      0.00411110	      3.69999987	     48.25641486	    -26.01190801	     -8.17278117	   -119.58849337	     30.91891873	     -4.99999985	      0.00000000	      3.70000000	     20.64170915	    -11.12116454	     18.99466787	   -127.98574949	     -8.24414752	     -4.99999985	      0.00000000
